<?xml version="1.0" encoding="utf-8"?>
<!-- Generator: Adobe Illustrator 28.2.0, SVG Export Plug-In . SVG Version: 6.00 Build 0)  -->
<svg version="1.1" id="Layer_1" xmlns="http://www.w3.org/2000/svg" xmlns:xlink="http://www.w3.org/1999/xlink" x="0px" y="0px"
	 viewBox="0 0 273.4 35.5" style="enable-background:new 0 0 273.4 35.5;" xml:space="preserve">
<style type="text/css">
	.st0{fill:#F7D862;}
</style>
<g>
	<path class="st0" d="M17.2,2.1c2.1,0,4,0.3,5.8,1c1.8,0.7,3.3,1.7,4.6,3c1.3,1.3,2.3,3,3.1,4.9c0.7,2,1.1,4.3,1.1,7
		c0,2.3-0.3,4.5-0.9,6.5c-0.6,2-1.5,3.7-2.7,5.1c-1.2,1.4-2.7,2.6-4.5,3.4c-1.8,0.8-4,1.2-6.4,1.2H3.3V2.1H17.2z M16.7,28.2
		c1,0,2-0.2,3-0.5c1-0.3,1.8-0.9,2.6-1.6c0.7-0.8,1.4-1.8,1.8-3c0.4-1.2,0.7-2.7,0.7-4.5c0-1.6-0.2-3.1-0.5-4.4s-0.8-2.4-1.6-3.4
		C22,9.9,21,9.2,19.8,8.7C18.6,8.2,17.2,8,15.4,8h-5v20.2H16.7z"/>
	<path class="st0" d="M36.4,11.6c0.7-2.1,1.8-3.8,3.1-5.4c1.4-1.5,3-2.7,5-3.6c2-0.9,4.2-1.3,6.6-1.3c2.5,0,4.7,0.4,6.7,1.3
		c1.9,0.9,3.6,2.1,5,3.6c1.3,1.5,2.4,3.3,3.1,5.4c0.7,2.1,1.1,4.3,1.1,6.7c0,2.3-0.4,4.5-1.1,6.5c-0.7,2-1.8,3.8-3.1,5.3
		c-1.4,1.5-3,2.7-5,3.5c-2,0.9-4.2,1.3-6.7,1.3c-2.5,0-4.7-0.4-6.6-1.3c-2-0.9-3.6-2-5-3.5s-2.4-3.3-3.1-5.3c-0.7-2-1.1-4.2-1.1-6.5
		C35.3,15.9,35.6,13.6,36.4,11.6z M42.8,22.2c0.3,1.3,0.8,2.4,1.5,3.4c0.7,1,1.6,1.8,2.7,2.5c1.1,0.6,2.5,0.9,4,0.9
		c1.6,0,2.9-0.3,4.1-0.9c1.1-0.6,2-1.4,2.7-2.5c0.7-1,1.2-2.2,1.5-3.4c0.3-1.3,0.5-2.6,0.5-3.9c0-1.4-0.2-2.8-0.5-4.1
		c-0.3-1.3-0.8-2.5-1.5-3.5c-0.7-1-1.6-1.9-2.7-2.5c-1.1-0.6-2.5-0.9-4.1-0.9c-1.6,0-2.9,0.3-4,0.9c-1.1,0.6-2,1.4-2.7,2.5
		c-0.7,1-1.2,2.2-1.5,3.5c-0.3,1.3-0.5,2.7-0.5,4.1C42.3,19.6,42.5,20.9,42.8,22.2z"/>
	<path class="st0" d="M81.6,2.1l7.5,22.1h0.1l7.1-22.1h9.9v32.1h-6.6V11.4h-0.1l-7.9,22.8h-5.4l-7.9-22.5h-0.1v22.5h-6.6V2.1H81.6z"
		/>
	<path class="st0" d="M128.5,2.1l12,32.1h-7.3l-2.4-7.2h-12l-2.5,7.2h-7.1l12.1-32.1H128.5z M128.9,21.8l-4-11.8h-0.1l-4.2,11.8
		H128.9z"/>
	<path class="st0" d="M136.7,8V2.1H163V8h-9.6v26.2h-7.1V8H136.7z"/>
</g>
<path class="st0" d="M185.7,35.6h63.9c9.8,0,17.7-7.9,17.7-17.7c0,0,0,0,0,0l0,0c0-9.8-7.9-17.8-17.6-17.8c0,0,0,0,0,0h-63.9
	C175.9,0.1,168,8,168,17.8c0,0,0,0,0,0l0,0C168,27.7,175.9,35.6,185.7,35.6L185.7,35.6z"/>
</svg>
