<?xml version="1.0" encoding="utf-8"?>
<!-- Generator: Adobe Illustrator 28.2.0, SVG Export Plug-In . SVG Version: 6.00 Build 0)  -->
<svg version="1.1" id="Layer_1" xmlns="http://www.w3.org/2000/svg" xmlns:xlink="http://www.w3.org/1999/xlink" x="0px" y="0px"
	 viewBox="0 0 203 82" style="enable-background:new 0 0 203 82;" xml:space="preserve">
<style type="text/css">
	.st0{fill:#F7D862;}
</style>
<g>
	<path class="st0" d="M46.5,78h-2.3C23.7,78,7,61.3,7,40.8l0,0C7,20.3,23.7,3.6,44.2,3.6h2.3c20.5,0,37.2,16.7,37.2,37.2l0,0
		C83.7,61.3,67,78,46.5,78z"/>
	<path class="st0" d="M159.9,78h-2.3c-20.5,0-37.2-16.7-37.2-37.2l0,0c0-20.5,16.7-37.2,37.2-37.2h2.3c20.5,0,37.2,16.7,37.2,37.2
		l0,0C197.1,61.3,180.4,78,159.9,78z"/>
</g>
</svg>
