<?xml version="1.0" encoding="utf-8"?>
<!-- Generator: Adobe Illustrator 28.2.0, SVG Export Plug-In . SVG Version: 6.00 Build 0)  -->
<svg version="1.1" id="Layer_1" xmlns="http://www.w3.org/2000/svg" xmlns:xlink="http://www.w3.org/1999/xlink" x="0px" y="0px"
	 viewBox="0 0 104 215" style="enable-background:new 0 0 104 215;" xml:space="preserve">
<style type="text/css">
	.st0{fill:#F7D862;}
</style>
<g>
	<path class="st0" d="M14.8,51.3V49c0-20.5,16.7-37.2,37.2-37.2h0c20.5,0,37.2,16.7,37.2,37.2v2.3c0,20.5-16.7,37.2-37.2,37.2h0
		C31.5,88.5,14.8,71.8,14.8,51.3z"/>
	<path class="st0" d="M14.8,164.7v-2.3c0-20.5,16.7-37.2,37.2-37.2h0c20.5,0,37.2,16.7,37.2,37.2v2.3c0,20.5-16.7,37.2-37.2,37.2h0
		C31.5,201.9,14.8,185.2,14.8,164.7z"/>
</g>
</svg>
