<?xml version="1.0" encoding="utf-8"?>
<!-- Generator: Adobe Illustrator 28.2.0, SVG Export Plug-In . SVG Version: 6.00 Build 0)  -->
<svg version="1.1" id="Layer_1" xmlns="http://www.w3.org/2000/svg" xmlns:xlink="http://www.w3.org/1999/xlink" x="0px" y="0px"
	 viewBox="0 0 190.2 81.5" style="enable-background:new 0 0 190.2 81.5;" xml:space="preserve">
<style type="text/css">
	.st0{fill:#1F1F1F;}
</style>
<g id="Layer_2_00000170970203403050734260000005544987997032233362_">
	<g id="Layer_1-2">
		<path class="st0" d="M105.7,36.1h66.9c9.8,0,17.7-7.9,17.7-17.7l0,0c0-9.8-7.9-17.7-17.7-17.7h-66.9C95.9,0.7,88,8.6,88,18.4
			c0,0,0,0,0,0l0,0C88,28.2,95.9,36.1,105.7,36.1z M17.7,81.1h76.9c9.8,0,17.7-7.9,17.7-17.7l0,0c0-9.8-7.9-17.7-17.7-17.7H17.7
			C7.9,45.7,0,53.6,0,63.4c0,0,0,0,0,0l0,0C0,73.2,7.9,81.1,17.7,81.1z M10.4,35.4h7.8V6.9h10.1V0h-28v6.9h10.1L10.4,35.4z
			 M38.5,35.4h7.8V8.2h0.1l9,27.2h6l9.3-27.1h0.1v27.1h7.8V0H66.8l-8.2,23.1h-0.1L50.3,0H38.5L38.5,35.4z M152.4,55.7
			c-1-2.2-2.6-4.1-4.5-5.5c-2-1.5-4.3-2.5-6.7-3.1c-2.6-0.7-5.3-1-8.1-1h-11.7v35.4h12.8c2.6,0,5.1-0.4,7.6-1.2
			c2.3-0.7,4.5-1.8,6.3-3.3c1.8-1.5,3.3-3.4,4.4-5.5c1.1-2.4,1.7-5,1.6-7.6C154.2,61.1,153.6,58.3,152.4,55.7z M145,68.6
			c-0.6,1.3-1.5,2.5-2.6,3.4c-1.2,0.9-2.6,1.5-4,1.8c-1.6,0.4-3.3,0.6-5,0.6h-4.1v-21h4.6c1.6,0,3.2,0.2,4.7,0.6
			c1.4,0.4,2.7,1,3.9,1.9c1.1,0.8,1.9,1.9,2.5,3.1c0.7,1.4,1,3,1,4.5C146,65.3,145.7,67,145,68.6z M189.6,68.5
			c-0.4-1-0.9-1.9-1.6-2.6c-0.7-0.8-1.5-1.4-2.4-1.8c-1-0.5-2.1-0.8-3.2-1v-0.1c1.7-0.5,3.3-1.5,4.4-2.8c1.2-1.4,1.8-3.2,1.7-5
			c0.1-1.6-0.3-3.2-1.1-4.7c-0.8-1.1-1.8-2.1-3-2.7c-1.3-0.7-2.7-1.1-4.2-1.3c-1.5-0.2-3.1-0.3-4.6-0.3h-13.2v35.4h14.5
			c1.6,0,3.2-0.2,4.7-0.5c1.5-0.3,3-0.9,4.3-1.7c1.3-0.7,2.3-1.8,3.1-3c0.8-1.4,1.3-3,1.2-4.7C190.2,70.6,190,69.5,189.6,68.5
			L189.6,68.5z M170.2,52.7h5.3c0.6,0,1.2,0.1,1.9,0.2c0.6,0.1,1.2,0.3,1.7,0.6c0.5,0.3,0.9,0.7,1.2,1.1c0.3,0.5,0.5,1.2,0.5,1.8
			c0,0.6-0.1,1.2-0.4,1.8c-0.3,0.5-0.7,0.9-1.1,1.2c-0.5,0.3-1,0.5-1.6,0.7c-0.6,0.1-1.2,0.2-1.8,0.2h-5.6L170.2,52.7z M181.9,72.7
			c-0.3,0.5-0.7,1-1.2,1.3c-0.5,0.3-1.1,0.6-1.7,0.7c-0.6,0.1-1.2,0.2-1.8,0.2h-7v-8h5.9c0.7,0,1.3,0.1,2,0.2
			c0.7,0.1,1.4,0.3,2.1,0.6c0.6,0.3,1.2,0.7,1.6,1.2c0.4,0.6,0.7,1.3,0.6,2C182.4,71.5,182.2,72.1,181.9,72.7L181.9,72.7z"/>
	</g>
</g>
</svg>
