<?xml version="1.0" encoding="utf-8"?>
<!-- Generator: Adobe Illustrator 28.2.0, SVG Export Plug-In . SVG Version: 6.00 Build 0)  -->
<svg version="1.1" id="Layer_1" xmlns="http://www.w3.org/2000/svg" xmlns:xlink="http://www.w3.org/1999/xlink" x="0px" y="0px"
	 viewBox="0 0 1000 218.6" style="enable-background:new 0 0 1000 218.6;" xml:space="preserve">
<style type="text/css">
	.st0{fill:#1F1F1F;}
</style>
<g>
	<path class="st0" d="M221.2,204.2c-14.2,0-27.1-2.7-38.7-8.2c-11.6-5.4-21.5-12.6-29.7-21.5c-8.2-8.9-14.7-19-19.2-30.4
		c-4.6-11.4-6.8-23.2-6.8-35.3c0-12.3,2.4-24.1,7.1-35.5c4.7-11.4,11.4-21.5,19.9-30.1c8.5-8.7,18.6-15.6,30.3-20.8
		c11.7-5.2,24.4-7.8,38.3-7.8c14.2,0,27.1,2.7,38.7,8.2c11.6,5.4,21.5,12.6,29.7,21.6c8.2,8.9,14.6,19.1,19.1,30.5
		c4.5,11.4,6.7,23.1,6.7,35c0,12.3-2.4,24.1-7.1,35.4c-4.7,11.3-11.3,21.3-19.7,30c-8.4,8.7-18.5,15.7-30.1,20.9
		C247.9,201.5,235.1,204.2,221.2,204.2z M178.9,109.4c0,6.3,0.9,12.4,2.6,18.3c1.8,5.9,4.4,11.1,7.9,15.7c3.5,4.6,7.9,8.2,13.3,11.1
		c5.4,2.8,11.7,4.2,19.1,4.2c7.4,0,13.8-1.4,19.2-4.3c5.4-2.9,9.9-6.7,13.3-11.3c3.4-4.6,6-10,7.6-15.9c1.7-6,2.5-12,2.5-18.2
		c0-6.3-0.9-12.4-2.6-18.3c-1.8-5.9-4.4-11.1-8-15.5c-3.6-4.5-8.1-8.1-13.4-10.8c-5.4-2.7-11.6-4.1-18.8-4.1
		c-7.4,0-13.7,1.4-19.1,4.2c-5.4,2.8-9.8,6.5-13.3,11.2c-3.5,4.7-6.1,9.9-7.8,15.8C179.7,97.3,178.9,103.3,178.9,109.4z"/>
	<path class="st0" d="M481,60.5h-53.7v142.1H376V60.5h-54V15.7h159V60.5z"/>
	<path class="st0" d="M645.3,60.5h-53.7v142.1h-51.3V60.5h-54V15.7h159V60.5z"/>
	<path class="st0" d="M797.1,157.9v44.7H663.9V15.7h130.8v44.7h-79.5v26.3h67.9v41.6h-67.9v29.5H797.1z"/>
	<path class="st0" d="M821.1,202.6V15.7h85.8c9.1,0,17.5,1.9,25.3,5.7c7.7,3.8,14.3,8.7,19.9,14.7s9.9,13,13,20.8
		c3.2,7.8,4.7,15.7,4.7,23.6c0,10.9-2.4,21-7.1,30.4c-4.7,9.4-11.3,17.1-19.7,23l39.5,68.7h-57.9l-32.9-57.4h-19.2v57.4H821.1z
		 M872.4,100.5h32.4c3.2,0,6.1-1.8,8.8-5.3c2.7-3.5,4.1-8.4,4.1-14.7c0-6.5-1.6-11.4-4.7-14.9c-3.2-3.4-6.3-5.1-9.5-5.1h-31.1V100.5
		z"/>
</g>
<path class="st0" d="M2.8,52.4v-2.3c0-20.5,16.7-37.2,37.2-37.2h0c20.5,0,37.2,16.7,37.2,37.2v2.3c0,20.5-16.7,37.2-37.2,37.2h0
	C19.4,89.6,2.8,72.9,2.8,52.4z"/>
<path class="st0" d="M2.8,165.8v-2.3c0-20.5,16.7-37.2,37.2-37.2h0c20.5,0,37.2,16.7,37.2,37.2v2.3c0,20.5-16.7,37.2-37.2,37.2h0
	C19.4,203,2.8,186.3,2.8,165.8z"/>
</svg>
